<svg width="513" height="587" viewBox="0 0 513 587" fill="none" xmlns="http://www.w3.org/2000/svg">
<path d="M-43.5 1C-83.8334 120.333 -102.9 326 143.5 194C389.9 62 486.5 222 504 318.5C534.333 492.667 496 818 100 726" stroke="#7D7D7D"/>
<path d="M-59.793 31C-100.126 150.333 -119.193 356 127.207 224C373.607 92 440 203.5 457.5 300C487.833 474.167 449.5 799.5 53.5 707.5" stroke="#7D7D7D"/>
<path d="M-88.793 64C-129.126 183.333 -148.193 389 98.207 257C344.607 125 404 173 421.5 269.5C451.833 443.667 413.5 769 17.5 677" stroke="#7D7D7D"/>
</svg>
