<svg width="523" height="723" viewBox="0 0 523 723" fill="none" xmlns="http://www.w3.org/2000/svg">
<path d="M539.5 10.5C381.5 -30.5 13.2988 71.2993 198.499 162.499C383.699 253.699 36.4998 422 19.9998 482C-29.3335 607.333 -13.3998 820.4 445 670C903.4 519.6 771.667 406 648.5 368" stroke="#7D7D7D"/>
<path d="M559 47.5C494.5 -39.5 39.3 70.8008 224.5 162.001C409.7 253.201 80.9995 421 54.8745 474.5C5.54112 599.833 -23.4005 786.4 435 636C893.4 485.6 687.499 413.5 619.999 384.5" stroke="#7D7D7D"/>
<path d="M602.5 60.5C452.5 -38 117.801 106.106 303.001 197.306C488.201 288.506 117.523 419.499 95.8744 474.499C46.541 599.833 -20.4006 757.9 437.999 607.5C896.399 457.1 637.999 428.499 570.499 399.499" stroke="#7D7D7D"/>
</svg>
