<svg width="801" height="939" viewBox="0 0 801 939" fill="none" xmlns="http://www.w3.org/2000/svg">
<path d="M833.499 11.5C721.666 -19.1667 573.613 11.5 502.003 139C461.003 212 428.5 474.5 311 451.5C112.833 381.833 -278.1 356.7 319.5 787.5C917.1 1218.3 1026 624 1015.5 284.5" stroke="#7D7D7D"/>
<path d="M838 67.5004C734.312 39.0537 615.894 65.23 549.5 183.5C511.486 251.216 438.443 501.701 329.5 480.366C145.766 415.743 -233.076 364.386 321.001 764C875.077 1163.62 976.046 612.336 966.311 297.412" stroke="#7D7D7D"/>
<path d="M836.236 120.361C751.279 97.0476 638.808 120.361 584.409 217.288C553.262 272.784 435.805 527.553 346.544 510.068C196.003 457.106 -100.977 438 353.001 765.5C806.979 1093 982.472 585.992 974.496 327.899" stroke="#7D7D7D"/>
</svg>
